<?xml version="1.0" encoding="UTF-8"?>
<svg xmlns="http://www.w3.org/2000/svg" xmlns:xlink="http://www.w3.org/1999/xlink" width="2250pt" height="577pt" viewBox="0 0 2250 577" version="1.1">
<g id="surface1">
<path style=" stroke:none;fill-rule:evenodd;fill:rgb(100%,1.960784%,0%);fill-opacity:1;" d="M 0 0 L 2250 0 L 2250 576.910156 L 0 576.910156 Z M 0 0 "/>
<path style=" stroke:none;fill-rule:nonzero;fill:rgb(100%,100%,100%);fill-opacity:1;" d="M 488.617188 189.167969 L 463.050781 189.167969 L 463.050781 412.179688 L 415.113281 412.179688 L 298.460938 260.308594 L 298.460938 362.621094 L 324.027344 362.621094 L 324.027344 412.179688 L 216.164062 412.179688 L 216.164062 362.621094 L 241.734375 362.621094 L 241.734375 189.167969 L 216.164062 189.167969 L 216.164062 139.609375 L 298.460938 139.609375 L 407.121094 281.089844 L 407.121094 189.167969 L 381.554688 189.167969 L 381.554688 139.609375 L 489.417969 139.609375 C 488.617188 139.609375 488.617188 189.167969 488.617188 189.167969 Z M 659.601562 316.261719 C 659.601562 320.257812 659.601562 324.253906 659.601562 329.050781 L 540.550781 329.050781 C 537.355469 367.417969 551.738281 378.609375 573.308594 378.609375 C 591.6875 378.609375 605.269531 366.621094 605.269531 347.4375 L 656.402344 347.4375 C 655.605469 381.007812 638.027344 419.375 570.113281 419.375 C 503 419.375 471.839844 370.617188 471.839844 316.261719 C 471.839844 267.503906 503.800781 215.546875 569.316406 215.546875 C 631.636719 215.546875 659.601562 259.511719 659.601562 316.261719 Z M 953.625 267.503906 L 936.046875 267.503906 L 892.105469 415.378906 L 833.777344 415.378906 L 806.613281 334.648438 L 781.84375 415.378906 L 722.71875 415.378906 L 673.980469 267.503906 L 656.402344 267.503906 L 656.402344 217.144531 L 759.472656 217.144531 L 759.472656 267.503906 L 733.90625 267.503906 L 761.070312 345.835938 L 796.226562 217.144531 L 828.183594 217.144531 L 871.332031 345.835938 L 894.5 267.503906 L 868.933594 267.503906 L 868.933594 217.144531 L 955.222656 217.144531 C 953.625 217.144531 953.625 267.503906 953.625 267.503906 Z M 1026.332031 269.101562 C 1026.332031 276.296875 1031.925781 281.089844 1051.101562 286.6875 L 1079.066406 295.480469 C 1104.632812 304.273438 1135.792969 322.65625 1135.792969 357.828125 C 1135.792969 398.59375 1105.429688 418.574219 1067.082031 418.574219 C 1036.71875 418.574219 1013.546875 404.1875 1007.15625 396.992188 L 1007.15625 413.78125 L 956.820312 413.78125 L 956.820312 345.039062 L 1006.359375 345.039062 C 1007.957031 367.417969 1027.929688 379.410156 1045.507812 379.410156 C 1059.890625 379.410156 1067.082031 373.015625 1067.082031 365.820312 C 1067.082031 357.027344 1061.488281 351.433594 1036.71875 343.4375 L 1011.949219 335.445312 C 987.183594 327.453125 959.21875 309.066406 959.21875 275.496094 C 959.21875 234.730469 995.171875 214.746094 1025.535156 214.746094 C 1057.492188 214.746094 1072.671875 223.539062 1080.664062 232.332031 L 1080.664062 217.144531 L 1131 217.144531 L 1131 278.695312 L 1079.066406 278.695312 C 1078.265625 261.90625 1062.285156 254.714844 1045.507812 254.714844 C 1031.925781 255.511719 1026.332031 261.109375 1026.332031 269.101562 Z M 1437.007812 267.503906 L 1419.429688 267.503906 L 1375.488281 415.378906 L 1317.160156 415.378906 L 1289.996094 334.648438 L 1265.226562 415.378906 L 1206.101562 415.378906 L 1157.367188 267.503906 L 1139.789062 267.503906 L 1139.789062 217.144531 L 1242.855469 217.144531 L 1242.855469 267.503906 L 1217.289062 267.503906 L 1244.453125 345.835938 L 1278.808594 217.144531 L 1310.769531 217.144531 L 1353.914062 345.835938 L 1377.085938 267.503906 L 1350.71875 267.503906 L 1350.71875 217.144531 L 1437.007812 217.144531 Z M 1619.175781 316.261719 C 1619.175781 320.257812 1619.175781 324.253906 1619.175781 329.050781 L 1500.925781 329.050781 C 1497.730469 367.417969 1512.113281 378.609375 1533.683594 378.609375 C 1552.0625 378.609375 1565.644531 366.621094 1565.644531 347.4375 L 1616.78125 347.4375 C 1615.980469 381.007812 1597.605469 419.375 1530.488281 419.375 C 1462.574219 419.375 1431.414062 370.617188 1431.414062 316.261719 C 1431.414062 267.503906 1464.175781 215.546875 1529.691406 215.546875 C 1592.011719 215.546875 1619.175781 258.710938 1619.175781 316.261719 Z M 1814.128906 315.460938 C 1814.128906 319.460938 1814.128906 323.457031 1814.128906 328.253906 L 1695.878906 328.253906 C 1692.683594 366.621094 1707.0625 377.808594 1728.636719 377.808594 C 1747.011719 377.808594 1760.597656 365.820312 1760.597656 346.636719 L 1811.730469 346.636719 C 1810.933594 380.207031 1792.554688 418.574219 1725.441406 418.574219 C 1657.527344 418.574219 1626.367188 369.816406 1626.367188 315.460938 C 1626.367188 266.703125 1659.125 214.746094 1724.640625 214.746094 C 1786.960938 214.746094 1814.128906 257.910156 1814.128906 315.460938 Z M 2029.054688 414.578125 L 1969.929688 414.578125 L 1908.40625 333.847656 L 1888.433594 349.035156 L 1888.433594 365.019531 L 1906.011719 365.019531 L 1906.011719 415.378906 L 1814.128906 415.378906 L 1814.128906 365.820312 L 1831.707031 365.820312 L 1831.707031 189.96875 L 1806.136719 189.96875 L 1806.136719 139.609375 L 1888.433594 139.609375 L 1888.433594 297.878906 L 1929.980469 267.503906 L 1904.414062 267.503906 L 1904.414062 217.144531 L 2013.871094 217.144531 L 2013.871094 267.503906 L 1996.296875 267.503906 L 1953.152344 299.476562 L 2002.6875 364.222656 L 2028.253906 364.222656 C 2029.054688 365.019531 2029.054688 414.578125 2029.054688 414.578125 Z M 1695.878906 296.277344 L 1760.597656 296.277344 C 1760.597656 268.300781 1742.21875 257.113281 1729.4375 257.113281 C 1713.457031 257.113281 1696.675781 269.902344 1695.878906 296.277344 Z M 1500.925781 296.277344 L 1565.644531 296.277344 C 1565.644531 268.300781 1547.269531 257.113281 1533.683594 257.113281 C 1518.503906 257.910156 1501.726562 270.699219 1500.925781 296.277344 Z M 541.351562 297.078125 L 606.070312 297.078125 C 606.070312 269.101562 587.691406 257.910156 574.109375 257.910156 C 558.128906 257.910156 542.148438 270.699219 541.351562 297.078125 Z M 541.351562 297.078125 "/>
</g>
</svg>
