<?xml version="1.0" encoding="UTF-8"?>
<svg xmlns="http://www.w3.org/2000/svg" xmlns:xlink="http://www.w3.org/1999/xlink" width="200pt" height="77pt" viewBox="0 0 300 77" version="1.1">
<g id="surface1">
<path style=" stroke:none;fill-rule:evenodd;fill:rgb(100%,1.960784%,0%);fill-opacity:1;" d="M 0 0 L 299.945312 0 L 299.945312 77.015625 L 0 77.015625 Z M 0 0 "/>
<path style=" stroke:none;fill-rule:nonzero;fill:rgb(100%,100%,100%);fill-opacity:1;" d="M 65.136719 25.253906 L 61.730469 25.253906 L 61.730469 55.023438 L 55.339844 55.023438 L 39.789062 34.75 L 39.789062 48.40625 L 43.195312 48.40625 L 43.195312 55.023438 L 28.816406 55.023438 L 28.816406 48.40625 L 32.226562 48.40625 L 32.226562 25.253906 L 28.816406 25.253906 L 28.816406 18.636719 L 39.789062 18.636719 L 54.273438 37.523438 L 54.273438 25.253906 L 50.863281 25.253906 L 50.863281 18.636719 L 65.242188 18.636719 C 65.136719 18.636719 65.136719 25.253906 65.136719 25.253906 Z M 87.929688 42.21875 C 87.929688 42.753906 87.929688 43.285156 87.929688 43.925781 L 72.0625 43.925781 C 71.632812 49.046875 73.550781 50.542969 76.425781 50.542969 C 78.878906 50.542969 80.6875 48.941406 80.6875 46.382812 L 87.503906 46.382812 C 87.398438 50.863281 85.054688 55.984375 76 55.984375 C 67.054688 55.984375 62.902344 49.476562 62.902344 42.21875 C 62.902344 35.710938 67.160156 28.773438 75.894531 28.773438 C 84.203125 28.773438 87.929688 34.644531 87.929688 42.21875 Z M 127.128906 35.710938 L 124.785156 35.710938 L 118.925781 55.449219 L 111.152344 55.449219 L 107.53125 44.675781 L 104.226562 55.449219 L 96.34375 55.449219 L 89.847656 35.710938 L 87.503906 35.710938 L 87.503906 28.988281 L 101.246094 28.988281 L 101.246094 35.710938 L 97.835938 35.710938 L 101.457031 46.167969 L 106.144531 28.988281 L 110.40625 28.988281 L 116.15625 46.167969 L 119.246094 35.710938 L 115.835938 35.710938 L 115.835938 28.988281 L 127.339844 28.988281 C 127.128906 28.988281 127.128906 35.710938 127.128906 35.710938 Z M 136.820312 35.921875 C 136.820312 36.882812 137.566406 37.523438 140.121094 38.269531 L 143.851562 39.445312 C 147.257812 40.617188 151.414062 43.074219 151.414062 47.769531 C 151.414062 53.210938 147.363281 55.878906 142.253906 55.878906 C 138.203125 55.878906 135.117188 53.957031 134.261719 52.996094 L 134.261719 55.238281 L 127.554688 55.238281 L 127.554688 46.0625 L 134.15625 46.0625 C 134.371094 49.046875 137.03125 50.648438 139.375 50.648438 C 141.292969 50.648438 142.253906 49.796875 142.253906 48.835938 C 142.253906 47.660156 141.507812 46.914062 138.203125 45.847656 L 134.902344 44.78125 C 131.601562 43.714844 127.875 41.257812 127.875 36.777344 C 127.875 31.335938 132.664062 28.667969 136.714844 28.667969 C 140.972656 28.667969 142.996094 29.839844 144.0625 31.015625 L 144.0625 28.988281 L 150.773438 28.988281 L 150.773438 37.203125 L 143.851562 37.203125 C 143.742188 34.964844 141.613281 34.003906 139.375 34.003906 C 137.566406 34.109375 136.820312 34.855469 136.820312 35.921875 Z M 191.566406 35.710938 L 189.222656 35.710938 L 183.367188 55.449219 L 175.589844 55.449219 L 171.96875 44.675781 L 168.667969 55.449219 L 160.785156 55.449219 L 154.289062 35.710938 L 151.945312 35.710938 L 151.945312 28.988281 L 165.683594 28.988281 L 165.683594 35.710938 L 162.277344 35.710938 L 165.898438 46.167969 L 170.476562 28.988281 L 174.738281 28.988281 L 180.488281 46.167969 L 183.578125 35.710938 L 180.0625 35.710938 L 180.0625 28.988281 L 191.566406 28.988281 Z M 215.851562 42.21875 C 215.851562 42.753906 215.851562 43.285156 215.851562 43.925781 L 200.085938 43.925781 C 199.660156 49.046875 201.578125 50.542969 204.453125 50.542969 C 206.90625 50.542969 208.714844 48.941406 208.714844 46.382812 L 215.53125 46.382812 C 215.425781 50.863281 212.976562 55.984375 204.027344 55.984375 C 194.976562 55.984375 190.820312 49.476562 190.820312 42.21875 C 190.820312 35.710938 195.1875 28.773438 203.921875 28.773438 C 212.230469 28.773438 215.851562 34.535156 215.851562 42.21875 Z M 241.839844 42.113281 C 241.839844 42.648438 241.839844 43.179688 241.839844 43.820312 L 226.078125 43.820312 C 225.652344 48.941406 227.566406 50.4375 230.445312 50.4375 C 232.894531 50.4375 234.703125 48.835938 234.703125 46.273438 L 241.519531 46.273438 C 241.414062 50.753906 238.964844 55.878906 230.019531 55.878906 C 220.964844 55.878906 216.808594 49.367188 216.808594 42.113281 C 216.808594 35.605469 221.175781 28.667969 229.910156 28.667969 C 238.21875 28.667969 241.839844 34.429688 241.839844 42.113281 Z M 270.492188 55.34375 L 262.609375 55.34375 L 254.410156 44.566406 L 251.746094 46.59375 L 251.746094 48.726562 L 254.089844 48.726562 L 254.089844 55.449219 L 241.839844 55.449219 L 241.839844 48.835938 L 244.183594 48.835938 L 244.183594 25.359375 L 240.777344 25.359375 L 240.777344 18.636719 L 251.746094 18.636719 L 251.746094 39.765625 L 257.285156 35.710938 L 253.875 35.710938 L 253.875 28.988281 L 268.46875 28.988281 L 268.46875 35.710938 L 266.125 35.710938 L 260.375 39.980469 L 266.976562 48.621094 L 270.386719 48.621094 C 270.492188 48.726562 270.492188 55.34375 270.492188 55.34375 Z M 226.078125 39.550781 L 234.703125 39.550781 C 234.703125 35.816406 232.253906 34.324219 230.550781 34.324219 C 228.421875 34.324219 226.183594 36.03125 226.078125 39.550781 Z M 200.085938 39.550781 L 208.714844 39.550781 C 208.714844 35.816406 206.265625 34.324219 204.453125 34.324219 C 202.429688 34.429688 200.195312 36.136719 200.085938 39.550781 Z M 72.167969 39.660156 L 80.796875 39.660156 C 80.796875 35.921875 78.34375 34.429688 76.535156 34.429688 C 74.402344 34.429688 72.273438 36.136719 72.167969 39.660156 Z M 72.167969 39.660156 "/>
</g>
</svg>
